<?xml version="1.0" standalone="no"?>
<!DOCTYPE svg PUBLIC "-//W3C//DTD SVG 20010904//EN"
 "http://www.w3.org/TR/2001/REC-SVG-20010904/DTD/svg10.dtd">
<svg version="1.0" xmlns="http://www.w3.org/2000/svg"
 width="1200.000000pt" height="1200.000000pt" viewBox="0 0 1200.000000 1200.000000"
 preserveAspectRatio="xMidYMid meet">

<g transform="translate(0.000000,1200.000000) scale(0.100000,-0.100000)"
fill="#000000" stroke="none">
<path d="M5975 8833 c-243 -34 -456 -202 -548 -433 -96 -241 -37 -535 143
-721 69 -71 173 -138 270 -175 70 -27 85 -28 225 -29 131 0 158 3 215 23 341
121 536 476 450 818 -33 130 -82 217 -180 315 -71 72 -101 93 -180 132 -132
65 -264 88 -395 70z"/>
<path d="M1930 5985 l0 -565 4070 0 4070 0 0 565 0 565 -4070 0 -4070 0 0
-565z"/>
<path d="M1930 3855 l0 -565 4070 0 4070 0 0 565 0 565 -4070 0 -4070 0 0
-565z"/>
</g>
</svg>
